<svg width="17" height="18" viewBox="0 0 17 18" fill="none" xmlns="http://www.w3.org/2000/svg">
<path d="M16.4963 1.90284V12.5997C16.4947 13.2926 16.275 13.9674 15.8683 14.5283C15.4616 15.0893 14.8887 15.508 14.2307 15.725C13.5726 15.942 12.863 15.9463 12.2024 15.7373C11.5418 15.5283 10.9638 15.1166 10.5504 14.5606C10.1369 14.0046 9.90908 13.3325 9.8991 12.6397C9.88912 11.9469 10.0975 11.2686 10.4948 10.7009C10.892 10.1332 11.458 9.70503 12.1123 9.47709C12.7666 9.24914 13.476 9.233 14.14 9.43096V5.52784C14.1402 5.43527 14.1202 5.34377 14.0814 5.25969C14.0427 5.1756 13.9862 5.10095 13.9157 5.0409C13.8452 4.98085 13.7626 4.93684 13.6734 4.91192C13.5843 4.887 13.4908 4.88177 13.3994 4.89659L7.14625 5.89034C6.99562 5.91369 6.85831 5.99017 6.75915 6.10595C6.66 6.22172 6.60554 6.36916 6.60562 6.52159V14.1966C6.6049 14.8876 6.38748 15.5609 5.98398 16.1218C5.58049 16.6827 5.01123 17.103 4.35636 17.3234C3.70149 17.5438 2.99398 17.5533 2.33344 17.3505C1.6729 17.1477 1.0926 16.7428 0.674232 16.1929C0.255865 15.643 0.0205021 14.9757 0.00127897 14.285C-0.0179442 13.5943 0.17994 12.915 0.567074 12.3426C0.954208 11.7703 1.51109 11.3338 2.15933 11.0946C2.80757 10.8553 3.51451 10.8254 4.18062 11.0091V3.36221C4.18009 2.91355 4.33869 2.47924 4.62822 2.1365C4.91775 1.79376 5.31944 1.56481 5.76187 1.49034L14.2681 0.0278384C14.5415 -0.0194245 14.8218 -0.00638715 15.0896 0.0660381C15.3573 0.138463 15.606 0.268527 15.8183 0.447127C16.0305 0.625727 16.2011 0.848548 16.3183 1.1C16.4354 1.35145 16.4961 1.62545 16.4963 1.90284Z" fill="url(#paint0_linear_4225_766)"/>
<defs>
<linearGradient id="paint0_linear_4225_766" x1="-0.00375127" y1="8.74971" x2="16.4962" y2="8.74971" gradientUnits="userSpaceOnUse">
<stop stop-color="#FFA68D"/>
<stop offset="1" stop-color="#FD3A84"/>
</linearGradient>
</defs>
</svg>
