<svg width="142" height="40" viewBox="0 0 142 40" fill="none" xmlns="http://www.w3.org/2000/svg">
<rect width="142" height="40" rx="8" fill="white"/>
<path d="M32.0918 20.665C32.0609 17.3131 34.9067 15.6824 35.0369 15.6065C33.4251 13.3154 30.927 13.0023 30.0491 12.9774C27.951 12.7621 25.9158 14.2014 24.847 14.2014C23.7569 14.2014 22.111 12.9982 20.3371 13.0335C18.0545 13.0678 15.919 14.3564 14.7478 16.3574C12.3307 20.4373 14.1334 26.4329 16.4491 29.7307C17.6075 31.3458 18.9611 33.1492 20.7329 33.0858C22.4662 33.0161 23.1137 32.0083 25.2054 32.0083C27.2779 32.0083 27.8859 33.0858 29.6929 33.0452C31.5531 33.0161 32.7243 31.4228 33.8422 29.7931C35.1809 27.9419 35.7185 26.1188 35.7398 26.0252C35.6961 26.0106 32.127 24.6826 32.0918 20.665Z" fill="black"/>
<path d="M28.6785 10.8079C29.6107 9.6712 30.2486 8.12472 30.0715 6.55536C28.7222 6.6136 27.0347 7.46536 26.063 8.57712C25.2033 9.5568 24.4353 11.1626 24.6337 12.6726C26.1494 12.7829 27.7057 11.927 28.6785 10.8079Z" fill="black"/>
<path d="M55.7239 30.761H53.3015L51.9745 26.6957H47.3623L46.0983 30.761H43.7399L48.3095 16.9207H51.1319L55.7239 30.761ZM51.5745 24.9901L50.3745 21.3761C50.2476 21.0069 50.0097 20.1374 49.6588 18.7688H49.6161C49.4764 19.3574 49.2513 20.2269 48.942 21.3761L47.7633 24.9901H51.5745Z" fill="black"/>
<path d="M67.4754 25.6484C67.4754 27.3457 67.005 28.6873 66.0642 29.6722C65.2215 30.5489 64.1751 30.9868 62.926 30.9868C61.5778 30.9868 60.6092 30.5146 60.0194 29.5703H59.9767V34.8275H57.7026V24.0666C57.7026 22.9996 57.6738 21.9045 57.6183 20.7813H59.6183L59.7452 22.3631H59.7879C60.5463 21.1713 61.6972 20.5764 63.2418 20.5764C64.4492 20.5764 65.4572 21.0412 66.2636 21.972C67.0722 22.9039 67.4754 24.129 67.4754 25.6484ZM65.1586 25.7296C65.1586 24.7582 64.9346 23.9574 64.4844 23.3272C63.9927 22.6699 63.3324 22.3413 62.5047 22.3413C61.9436 22.3413 61.4338 22.5243 60.9783 22.8852C60.5218 23.2492 60.2231 23.7245 60.0833 24.3131C60.0129 24.5877 59.9778 24.8123 59.9778 24.9891V26.6531C59.9778 27.379 60.206 27.9916 60.6626 28.4918C61.1191 28.9921 61.7122 29.2416 62.4418 29.2416C63.2983 29.2416 63.965 28.9193 64.4418 28.2765C64.9196 27.6328 65.1586 26.7841 65.1586 25.7296Z" fill="black"/>
<path d="M79.2481 25.6484C79.2481 27.3457 78.7777 28.6873 77.8358 29.6722C76.9942 30.5489 75.9478 30.9868 74.6988 30.9868C73.3505 30.9868 72.382 30.5146 71.7932 29.5703H71.7505V34.8275H69.4764V24.0666C69.4764 22.9996 69.4476 21.9045 69.3921 20.7813H71.3921L71.519 22.3631H71.5617C72.319 21.1713 73.47 20.5764 75.0156 20.5764C76.222 20.5764 77.23 21.0412 78.0385 21.972C78.8438 22.9039 79.2481 24.129 79.2481 25.6484ZM76.9313 25.7296C76.9313 24.7582 76.7062 23.9574 76.2561 23.3272C75.7644 22.6699 75.1062 22.3413 74.2774 22.3413C73.7153 22.3413 73.2065 22.5243 72.75 22.8852C72.2934 23.2492 71.9958 23.7245 71.8561 24.3131C71.7868 24.5877 71.7505 24.8123 71.7505 24.9891V26.6531C71.7505 27.379 71.9788 27.9916 72.4332 28.4918C72.8897 28.991 73.4828 29.2416 74.2145 29.2416C75.071 29.2416 75.7377 28.9193 76.2145 28.2765C76.6924 27.6328 76.9313 26.7841 76.9313 25.7296Z" fill="black"/>
<path d="M92.4108 26.8798C92.4108 28.0571 91.9916 29.0149 91.15 29.7544C90.2252 30.5625 88.9377 30.966 87.2833 30.966C85.7558 30.966 84.5313 30.6789 83.6044 30.1038L84.1313 28.2557C85.1297 28.8444 86.2252 29.1397 87.4188 29.1397C88.2753 29.1397 88.942 28.9505 89.4209 28.574C89.8977 28.1975 90.1356 27.6921 90.1356 27.0618C90.1356 26.5002 89.9393 26.027 89.5457 25.6433C89.1542 25.2595 88.5004 24.9028 87.5873 24.5731C85.102 23.6693 83.8604 22.3454 83.8604 20.6045C83.8604 19.4667 84.2956 18.5338 85.167 17.8079C86.0353 17.0809 87.1937 16.718 88.6422 16.718C89.934 16.718 91.007 16.9374 91.8636 17.3753L91.295 19.1828C90.495 18.7585 89.5905 18.5463 88.5782 18.5463C87.7782 18.5463 87.1532 18.7387 86.7052 19.1214C86.3265 19.4636 86.1366 19.8806 86.1366 20.3746C86.1366 20.9217 86.3532 21.3741 86.7884 21.7297C87.167 22.0584 87.855 22.4141 88.8534 22.7978C90.0748 23.2773 90.9718 23.8378 91.5489 24.4805C92.1238 25.1212 92.4108 25.923 92.4108 26.8798Z" fill="black"/>
<path d="M99.9296 22.4452H97.423V27.2905C97.423 28.5229 97.8646 29.1386 98.7499 29.1386C99.1563 29.1386 99.4934 29.1043 99.76 29.0357L99.823 30.7194C99.375 30.8827 98.7851 30.9649 98.0544 30.9649C97.1563 30.9649 96.4544 30.6976 95.9478 30.1641C95.4432 29.6295 95.1894 28.733 95.1894 27.4736V22.4431H93.696V20.7791H95.1894V18.9518L97.423 18.2945V20.7791H99.9296V22.4452Z" fill="black"/>
<path d="M111.24 25.6889C111.24 27.2229 110.789 28.4824 109.891 29.4673C108.949 30.4813 107.699 30.9867 106.141 30.9867C104.639 30.9867 103.443 30.501 102.552 29.5297C101.66 28.5583 101.214 27.3321 101.214 25.8543C101.214 24.3078 101.673 23.0411 102.593 22.0562C103.512 21.0703 104.751 20.5773 106.309 20.5773C107.811 20.5773 109.02 21.063 109.932 22.0354C110.804 22.9787 111.24 24.1965 111.24 25.6889ZM108.88 25.7607C108.88 24.8403 108.679 24.0509 108.27 23.3926C107.793 22.596 107.112 22.1987 106.228 22.1987C105.314 22.1987 104.62 22.597 104.143 23.3926C103.735 24.052 103.533 24.8538 103.533 25.8023C103.533 26.7227 103.735 27.5121 104.143 28.1693C104.635 28.966 105.322 29.3633 106.208 29.3633C107.076 29.3633 107.758 28.9577 108.25 28.1485C108.669 27.4777 108.88 26.6801 108.88 25.7607Z" fill="black"/>
<path d="M118.632 22.7313C118.406 22.6907 118.166 22.6699 117.915 22.6699C117.115 22.6699 116.496 22.9642 116.061 23.5539C115.682 24.0739 115.492 24.7312 115.492 25.5247V30.7611H113.219L113.241 23.9241C113.241 22.7739 113.212 21.7266 113.155 20.7823H115.136L115.219 22.6917H115.282C115.522 22.0355 115.901 21.5072 116.419 21.1109C116.926 20.7542 117.473 20.5764 118.063 20.5764C118.273 20.5764 118.463 20.5909 118.632 20.6169V22.7313Z" fill="black"/>
<path d="M128.802 25.299C128.802 25.6963 128.776 26.0311 128.719 26.3047H121.897C121.923 27.2906 122.253 28.0446 122.886 28.5646C123.461 29.0295 124.205 29.2624 125.118 29.2624C126.128 29.2624 127.05 29.1054 127.878 28.7903L128.235 30.3295C127.266 30.7413 126.123 30.9462 124.803 30.9462C123.216 30.9462 121.97 30.4907 121.064 29.5807C120.159 28.6707 119.706 27.4487 119.706 25.9157C119.706 24.4108 120.127 23.1576 120.971 22.1582C121.854 21.0911 123.048 20.5576 124.549 20.5576C126.025 20.5576 127.141 21.0911 127.9 22.1582C128.5 23.0058 128.802 24.0541 128.802 25.299ZM126.634 24.7239C126.649 24.0666 126.5 23.4987 126.192 23.0193C125.798 22.4026 125.194 22.0947 124.38 22.0947C123.636 22.0947 123.032 22.3953 122.57 22.9985C122.191 23.4779 121.966 24.0531 121.897 24.7228H126.634V24.7239Z" fill="black"/>
<path d="M49.4721 8.40632C49.4721 9.6304 49.0956 10.5518 48.3436 11.1706C47.6471 11.7416 46.6572 12.0276 45.3751 12.0276C44.7393 12.0276 44.1953 12.0006 43.7399 11.9465V5.25824C44.334 5.16464 44.974 5.1168 45.6652 5.1168C46.8865 5.1168 47.8071 5.37576 48.4279 5.89368C49.1233 6.4792 49.4721 7.3164 49.4721 8.40632ZM48.2935 8.43648C48.2935 7.64296 48.078 7.03456 47.6471 6.61024C47.2161 6.18696 46.5868 5.9748 45.758 5.9748C45.406 5.9748 45.1063 5.99768 44.8577 6.04552V11.1301C44.9953 11.1509 45.2471 11.1602 45.6129 11.1602C46.4684 11.1602 47.1287 10.9283 47.5937 10.4645C48.0588 10.0006 48.2935 9.32464 48.2935 8.43648Z" fill="black"/>
<path d="M55.7217 9.47541C55.7217 10.2294 55.5009 10.8472 55.0593 11.3318C54.5963 11.83 53.983 12.0785 53.2171 12.0785C52.479 12.0785 51.8913 11.8404 51.4529 11.362C51.0155 10.8846 50.7969 10.2824 50.7969 9.55653C50.7969 8.79733 51.0219 8.17437 51.4742 7.69077C51.9265 7.20717 52.5345 6.96485 53.3003 6.96485C54.0385 6.96485 54.6315 7.20301 55.0806 7.68037C55.5073 8.14421 55.7217 8.74325 55.7217 9.47541ZM54.5622 9.51077C54.5622 9.05837 54.4619 8.67045 54.2625 8.34701C54.0278 7.95597 53.6939 7.76045 53.2598 7.76045C52.8107 7.76045 52.4694 7.95597 52.2347 8.34701C52.0342 8.67045 51.935 9.06461 51.935 9.53053C51.935 9.98293 52.0353 10.3708 52.2347 10.6943C52.4769 11.0853 52.8139 11.2808 53.2491 11.2808C53.6758 11.2808 54.0107 11.0822 54.2518 10.6839C54.4587 10.3542 54.5622 9.96317 54.5622 9.51077Z" fill="black"/>
<path d="M64.1015 7.06485L62.5282 11.9674H61.5042L60.8524 9.83853C60.6871 9.30709 60.5527 8.77877 60.4482 8.25461H60.4279C60.3308 8.79333 60.1964 9.32061 60.0236 9.83853L59.3314 11.9674H58.2956L56.8162 7.06485H57.965L58.5335 9.39549C58.6711 9.94669 58.7842 10.4719 58.8748 10.969H58.8951C58.9783 10.5592 59.1159 10.0372 59.31 9.40589L60.0236 7.06589H60.9346L61.6183 9.35597C61.7836 9.91445 61.918 10.4521 62.0215 10.97H62.0524C62.1282 10.4656 62.2423 9.92797 62.3938 9.35597L63.0039 7.06589H64.1015V7.06485Z" fill="black"/>
<path d="M69.8966 11.9672H68.7787V9.15924C68.7787 8.29396 68.4417 7.86132 67.7654 7.86132C67.4337 7.86132 67.1659 7.97988 66.9579 8.21804C66.7521 8.4562 66.6475 8.737 66.6475 9.05836V11.9662H65.5297V8.46556C65.5297 8.035 65.5158 7.56804 65.4891 7.0626H66.4715L66.5238 7.82908H66.5547C66.6849 7.59092 66.879 7.39436 67.1339 7.23732C67.4369 7.05428 67.7761 6.96172 68.1473 6.96172C68.6166 6.96172 69.007 7.1094 69.3174 7.4058C69.7035 7.76876 69.8966 8.3106 69.8966 9.03028V11.9672Z" fill="black"/>
<path d="M72.9793 11.9673H71.8625V4.81524H72.9793V11.9673Z" fill="black"/>
<path d="M79.5607 9.47541C79.5607 10.2294 79.3399 10.8472 78.8983 11.3318C78.4353 11.83 77.8209 12.0785 77.0561 12.0785C76.3169 12.0785 75.7292 11.8404 75.2919 11.362C74.8545 10.8846 74.6359 10.2824 74.6359 9.55653C74.6359 8.79733 74.8609 8.17437 75.3132 7.69077C75.7655 7.20717 76.3735 6.96485 77.1383 6.96485C77.8775 6.96485 78.4695 7.20301 78.9196 7.68037C79.3463 8.14421 79.5607 8.74325 79.5607 9.47541ZM78.4001 9.51077C78.4001 9.05837 78.2999 8.67045 78.1004 8.34701C77.8668 7.95597 77.5319 7.76045 77.0988 7.76045C76.6487 7.76045 76.3073 7.95597 76.0737 8.34701C75.8732 8.67045 75.774 9.06461 75.774 9.53053C75.774 9.98293 75.8743 10.3708 76.0737 10.6943C76.3159 11.0853 76.6529 11.2808 77.0881 11.2808C77.5148 11.2808 77.8487 11.0822 78.0897 10.6839C78.2977 10.3542 78.4001 9.96317 78.4001 9.51077Z" fill="black"/>
<path d="M84.9708 11.9672H83.967L83.8838 11.4025H83.8529C83.5094 11.8528 83.0198 12.0785 82.3841 12.0785C81.9094 12.0785 81.5254 11.9298 81.2364 11.6344C80.974 11.3661 80.8428 11.0323 80.8428 10.636C80.8428 10.037 81.0988 9.58045 81.614 9.26429C82.1281 8.94813 82.8513 8.79317 83.7825 8.80045V8.70893C83.7825 8.06309 83.4348 7.74069 82.7382 7.74069C82.2422 7.74069 81.8049 7.86237 81.4273 8.10365L81.2001 7.38813C81.6673 7.10629 82.2444 6.96485 82.9249 6.96485C84.239 6.96485 84.8982 7.64085 84.8982 8.99285V10.7983C84.8982 11.2881 84.9228 11.6781 84.9708 11.9672ZM83.8102 10.2824V9.52637C82.5772 9.50557 81.9606 9.83525 81.9606 10.5144C81.9606 10.7702 82.031 10.9616 82.175 11.0895C82.319 11.2174 82.5025 11.2808 82.7212 11.2808C82.9665 11.2808 83.1958 11.2049 83.4049 11.0541C83.615 10.9023 83.7441 10.7099 83.7921 10.4738C83.8038 10.4208 83.8102 10.3563 83.8102 10.2824Z" fill="black"/>
<path d="M91.3227 11.9673H90.3307L90.2784 11.18H90.2475C89.9307 11.7791 89.391 12.0786 88.6326 12.0786C88.0267 12.0786 87.5222 11.8467 87.1222 11.3828C86.7222 10.919 86.5227 10.3168 86.5227 9.5774C86.5227 8.78388 86.7392 8.14116 87.1744 7.65028C87.5958 7.19268 88.112 6.96388 88.7264 6.96388C89.4016 6.96388 89.8742 7.1854 90.143 7.62948H90.1643V4.81524H91.2832V10.6465C91.2832 11.1239 91.296 11.5638 91.3227 11.9673ZM90.1643 9.8998V9.08236C90.1643 8.94092 90.1536 8.82652 90.1334 8.73916C90.0704 8.47708 89.935 8.2566 89.7291 8.07876C89.5211 7.90092 89.2704 7.81148 88.9814 7.81148C88.5643 7.81148 88.2379 7.97268 87.9979 8.29612C87.76 8.61956 87.6395 9.03244 87.6395 9.53684C87.6395 10.0215 87.7536 10.4146 87.983 10.7172C88.2251 11.0396 88.5515 11.2008 88.96 11.2008C89.327 11.2008 89.6203 11.0667 89.8432 10.7973C90.0587 10.5488 90.1643 10.2492 90.1643 9.8998Z" fill="black"/>
<path d="M100.883 9.47541C100.883 10.2294 100.662 10.8472 100.221 11.3318C99.758 11.83 99.1457 12.0785 98.3788 12.0785C97.6417 12.0785 97.054 11.8404 96.6145 11.362C96.1772 10.8846 95.9585 10.2824 95.9585 9.55653C95.9585 8.79733 96.1836 8.17437 96.6358 7.69077C97.0881 7.20717 97.6961 6.96485 98.463 6.96485C99.2001 6.96485 99.7942 7.20301 100.242 7.68037C100.669 8.14421 100.883 8.74325 100.883 9.47541ZM99.7249 9.51077C99.7249 9.05837 99.6246 8.67045 99.4252 8.34701C99.1894 7.95597 98.8566 7.76045 98.4214 7.76045C97.9734 7.76045 97.6321 7.95597 97.3964 8.34701C97.1958 8.67045 97.0966 9.06461 97.0966 9.53053C97.0966 9.98293 97.1969 10.3708 97.3964 10.6943C97.6385 11.0853 97.9756 11.2808 98.4108 11.2808C98.8374 11.2808 99.1734 11.0822 99.4145 10.6839C99.6204 10.3542 99.7249 9.96317 99.7249 9.51077Z" fill="black"/>
<path d="M106.894 11.9672H105.777V9.15924C105.777 8.29396 105.44 7.86132 104.763 7.86132C104.431 7.86132 104.163 7.97988 103.956 8.21804C103.749 8.4562 103.646 8.737 103.646 9.05836V11.9662H102.527V8.46556C102.527 8.035 102.514 7.56804 102.488 7.0626H103.469L103.521 7.82908H103.552C103.683 7.59092 103.877 7.39436 104.131 7.23732C104.435 7.05428 104.773 6.96172 105.146 6.96172C105.614 6.96172 106.004 7.1094 106.315 7.4058C106.702 7.76876 106.894 8.3106 106.894 9.03028V11.9672Z" fill="black"/>
<path d="M114.417 7.88111H113.186V10.2627C113.186 10.868 113.405 11.1706 113.838 11.1706C114.038 11.1706 114.205 11.154 114.336 11.1197L114.365 11.9465C114.144 12.0276 113.854 12.0682 113.497 12.0682C113.055 12.0682 112.712 11.9371 112.463 11.675C112.213 11.413 112.09 10.972 112.09 10.3532V7.88111H111.355V7.06471H112.09V6.16615L113.185 5.84375V7.06367H114.416V7.88111H114.417Z" fill="black"/>
<path d="M120.335 11.9673H119.216V9.18012C119.216 8.30132 118.879 7.8614 118.204 7.8614C117.685 7.8614 117.331 8.1162 117.137 8.6258C117.104 8.73292 117.085 8.86396 117.085 9.01788V11.9663H115.968V4.81524H117.085V7.76988H117.106C117.458 7.2322 117.963 6.96388 118.617 6.96388C119.08 6.96388 119.462 7.11156 119.766 7.40796C120.145 7.77716 120.335 8.32628 120.335 9.0522V11.9673Z" fill="black"/>
<path d="M126.44 9.28403C126.44 9.47955 126.425 9.64387 126.398 9.77803H123.045C123.06 10.2627 123.22 10.6319 123.531 10.8877C123.814 11.1165 124.18 11.2309 124.628 11.2309C125.124 11.2309 125.577 11.154 125.984 10.999L126.159 11.7561C125.682 11.9579 125.121 12.0588 124.472 12.0588C123.693 12.0588 123.08 11.8352 122.636 11.388C122.19 10.9408 121.969 10.3407 121.969 9.58771C121.969 8.84827 122.175 8.23259 122.59 7.74171C123.023 7.21755 123.609 6.95547 124.348 6.95547C125.071 6.95547 125.62 7.21755 125.992 7.74171C126.291 8.15771 126.44 8.67251 126.44 9.28403ZM125.373 9.00219C125.381 8.67875 125.308 8.40003 125.156 8.16499C124.962 7.86235 124.667 7.71051 124.267 7.71051C123.902 7.71051 123.604 7.85819 123.377 8.15459C123.192 8.39067 123.082 8.67251 123.045 9.00219H125.373Z" fill="black"/>
</svg>
