<svg width="177" height="40" viewBox="0 0 177 40" fill="none" xmlns="http://www.w3.org/2000/svg">
<path d="M15.1574 9.84055L3.48256 16.6384L3.12593 16.8482V29.4157C3.12593 29.7829 2.64336 29.9192 2.45455 29.594L0.587427 26.4049C0.199312 25.744 0 24.9992 0 24.2334V15.9775C0 15.348 0.335656 14.7501 0.881115 14.4249L13.4896 7.00813C13.7414 6.86127 14.0351 6.77734 14.3183 6.77734C14.6015 6.77734 14.8848 6.85078 15.1365 6.99765C15.6505 7.29138 15.9547 7.82639 15.9547 8.41386C15.9756 9.00132 15.6609 9.53633 15.1574 9.84055Z" fill="#06A573"/>
<path d="M37.3947 30.3287L35.5905 33.7171C35.1919 34.4514 34.6044 35.0598 33.8701 35.469L26.7477 39.3924C26.4855 39.5393 26.1813 39.6127 25.8771 39.6127C25.5519 39.6127 25.2372 39.5288 24.9645 39.3609L12.3036 31.8393C12.0833 31.7134 11.905 31.5246 11.7686 31.2938C11.6428 31.063 11.5693 30.8112 11.5693 30.549C11.5693 29.6258 12.3455 29.0488 13.0693 29.0488C13.3316 29.0488 13.5938 29.1223 13.8246 29.2586L25.4575 36.0984L25.8247 36.3187L26.1918 36.0984L36.8912 29.8461C37.2164 29.6678 37.573 30.0139 37.3947 30.3287Z" fill="#06A573"/>
<path d="M34.3962 6.01102V20.7291C34.3962 21.3061 34.0815 21.8411 33.5885 22.1453C33.3263 22.2922 33.0535 22.3761 32.7598 22.3761C31.9731 22.3761 31.1234 21.7467 31.1234 20.7396V6.94467L30.7668 6.73486L20.3821 0.67139C20.0674 0.493053 20.1933 0 20.5604 0H24.5255C25.2703 0 26.0045 0.188827 26.6444 0.555992L33.4836 4.42696C34.0395 4.76266 34.3962 5.36061 34.3962 6.01102Z" fill="#06A573"/>
<path d="M26.5489 21.6099L17.3915 26.2152C16.1957 26.8131 14.79 25.9529 14.79 24.6101V15.41C14.79 14.0672 16.1957 13.1965 17.3915 13.805L26.5489 18.4103C27.8706 19.0712 27.8706 20.949 26.5489 21.6099Z" fill="#07E992"/>
<path d="M19.6883 40.0005H15.5868C14.8211 40.0005 14.0658 39.7907 13.405 39.4025L6.66017 35.4372C6.11471 35.112 5.76855 34.5245 5.76855 33.8846V19.2085C5.76855 18.642 6.15668 17.9181 6.67067 17.6559C6.91193 17.53 7.1532 17.4775 7.41544 17.4775C8.20216 17.4775 9.05183 18.107 9.05183 19.114V32.9614L9.40846 33.1712L19.8875 39.3291C20.1813 39.5179 20.0554 40.0005 19.6883 40.0005Z" fill="#07E992"/>
<path d="M26.1304 10.5114L14.7807 3.92345L14.4241 3.71364L14.0674 3.91295L3.21071 9.97642C2.89602 10.1548 2.54984 9.80858 2.71768 9.48338L4.54291 6.1684C4.94151 5.45505 5.52891 4.85709 6.25269 4.45846L13.3437 0.587484C13.6059 0.440618 13.8996 0.367188 14.2038 0.367188C14.508 0.367188 14.8122 0.451112 15.0849 0.597978L27.6934 7.65804C28.2074 7.95177 28.564 8.47629 28.5745 9.07425C28.5955 10.1023 27.7353 10.7422 26.9486 10.7422C26.6654 10.7317 26.3927 10.6583 26.1304 10.5114Z" fill="#07E992"/>
<path d="M40.1018 15.5675V23.9913C40.1018 24.6312 39.7557 25.2187 39.1997 25.5439L26.4444 32.9397C26.2031 33.076 25.9304 33.1495 25.6472 33.1495C25.2695 33.1495 24.9129 33.0236 24.6087 32.7613C24.315 32.5095 24.1157 32.1529 24.0737 31.7752C23.9898 31.1248 24.2835 30.5164 24.8395 30.1912L36.4305 23.278L36.7766 23.0682V10.123C36.7766 9.75579 37.2591 9.62991 37.4479 9.94462L39.4934 13.354C39.8815 14.0044 40.1018 14.7807 40.1018 15.5675Z" fill="#07E992"/>
<path d="M64.7423 10.3994H49.2432V14.2538H54.9061V29.6478H59.0794V14.2538H64.7423V10.3994Z" fill="white"/>
<path d="M70.7832 14.9756C66.4089 14.9756 63.4297 18.3571 63.4297 22.448C63.4297 26.9645 66.7518 30.0267 71.1497 30.0267C74.1526 30.0267 76.5052 28.5724 77.7348 26.0186L74.6137 24.4461C73.9516 25.7585 72.663 26.5034 71.1261 26.5034C69.0926 26.5034 67.6385 25.2501 67.3547 23.3583H77.8767V22.1524C77.8885 18.2861 75.2757 14.9756 70.7832 14.9756ZM67.5321 21.1001C67.8158 19.6695 68.9862 18.5226 70.7596 18.5226C72.4738 18.5226 73.6797 19.634 73.8452 21.1001H67.5321Z" fill="white"/>
<path d="M95.0075 15.4834H90.4323L88.0323 19.456C87.8905 19.6925 87.7486 19.9526 87.6422 20.2246C87.5358 20.4965 87.2757 20.6857 86.9801 20.6857H86.8264C86.5309 20.6857 86.2708 20.4965 86.1644 20.2246C86.058 19.9526 85.9161 19.6925 85.7742 19.456L83.3743 15.4834H78.7754L82.1802 21.064C82.5467 21.667 82.7241 22.1281 82.7241 22.5774C82.7241 23.0622 82.5231 23.5824 82.0975 24.2682L78.7754 29.6478H83.327L85.7624 25.7224C85.9398 25.4268 86.1053 25.1076 86.2353 24.7647C86.3417 24.4928 86.6018 24.3154 86.8856 24.3154C87.1693 24.3154 87.4294 24.4928 87.5358 24.7647C87.6658 25.0958 87.8313 25.4268 88.0087 25.7224L90.4441 29.6478H94.9957L91.6736 24.2682C91.248 23.5824 91.047 23.0622 91.047 22.5774C91.047 22.1163 91.2244 21.667 91.5909 21.064L95.0075 15.4834Z" fill="white"/>
<path d="M102.847 11.8779H98.7796V15.4841H96.1787V18.9128H98.7796V24.0323C98.7796 27.5793 100.813 30.0386 104.904 30.0386C105.909 30.0386 107.138 29.814 107.847 29.3528V25.7231C107.162 26.1487 106.098 26.4088 105.27 26.4088C103.781 26.4088 102.835 25.4984 102.835 23.9141V18.9128H107.836V15.4841H102.835V11.8779H102.847Z" fill="white"/>
<path d="M126.479 10.3994H119.705V29.6597L123.878 29.636V24.5756H126.716C132.012 24.5756 135.299 22.0572 135.299 17.4225C135.287 12.9414 131.941 10.3994 126.479 10.3994ZM126.598 20.6976H123.878V14.2656H126.598C129.34 14.2656 131.007 15.2943 131.007 17.4107C130.995 19.6335 129.34 20.6976 126.598 20.6976Z" fill="white"/>
<path d="M141.434 10.3994H137.367V29.6597H141.434V10.3994Z" fill="white"/>
<path d="M151.685 15.0586C147.335 15.0586 144.013 18.4637 144.013 22.5309C144.013 26.6455 146.897 30.027 151.023 30.027C152.974 30.027 154.511 29.2584 155.516 27.9933V29.6486H159.382V22.5191C159.382 18.2627 156.119 15.0586 151.685 15.0586ZM151.685 26.2198C149.593 26.2198 148.08 24.5646 148.08 22.5546C148.08 20.5565 149.593 18.8894 151.685 18.8894C153.778 18.8894 155.315 20.5446 155.315 22.5546C155.315 24.5527 153.778 26.2198 151.685 26.2198Z" fill="white"/>
<path d="M172.468 15.4834V22.4355C172.468 24.4692 171.097 25.9825 169.264 25.9825C167.266 25.9825 166.143 24.5756 166.143 22.5183V15.4834H162.135V22.6602C162.135 26.8693 164.133 29.8133 168.744 29.8133C170.494 29.8133 171.747 29.1867 172.515 28.0398V28.4418C172.515 31.0784 171.109 32.8519 168.685 32.8519C166.853 32.8519 165.599 31.906 164.961 30.6764L161.615 32.509C162.904 35.1456 165.363 36.5763 168.744 36.5763C173.402 36.5763 176.582 33.3485 176.582 28.3945V15.4834H172.468Z" fill="white"/>
</svg>
