<svg width="142" height="40" viewBox="0 0 142 40" fill="none" xmlns="http://www.w3.org/2000/svg">
<rect width="142" height="40" rx="8" fill="white"/>
<g clip-path="url(#clip0_52_4576)">
<path d="M21.384 19.424L10.296 31.016C10.656 32.24 11.808 33.176 13.176 33.176C13.752 33.176 14.256 33.032 14.688 32.744L27.216 25.616L21.384 19.424Z" fill="#EA4335"/>
<path d="M32.6161 17.4081L27.2161 14.3121L21.1681 19.6401L27.2881 25.6161L32.6881 22.5921C33.6241 22.0881 34.2721 21.0801 34.2721 20.0001C34.2001 18.9201 33.5521 17.9121 32.6161 17.4081Z" fill="#FBBC04"/>
<path d="M10.296 8.98394C10.224 9.19994 10.224 9.48794 10.224 9.77594V30.2959C10.224 30.5839 10.224 30.7999 10.296 31.0879L21.816 19.7839L10.296 8.98394Z" fill="#4285F4"/>
<path d="M21.456 20L27.216 14.312L14.76 7.25597C14.328 6.96797 13.752 6.82397 13.176 6.82397C11.808 6.82397 10.584 7.75997 10.296 8.98397L21.456 20Z" fill="#34A853"/>
</g>
<path d="M50.7933 9.36336C50.7933 10.2318 50.527 10.9273 50.0024 11.446C49.3992 12.0609 48.6137 12.3703 47.651 12.3703C46.7309 12.3703 45.9453 12.0557 45.3009 11.4356C44.6551 10.8064 44.3329 10.0342 44.3329 9.10986C44.3329 8.18556 44.6551 7.41336 45.3009 6.78936C45.9453 6.16406 46.7309 5.84946 47.651 5.84946C48.109 5.84946 48.5458 5.94176 48.9625 6.11336C49.3779 6.28626 49.7161 6.52026 49.9611 6.80886L49.4046 7.35746C48.9772 6.86476 48.3953 6.62166 47.651 6.62166C46.9799 6.62166 46.398 6.85046 45.9041 7.31196C45.4154 7.77476 45.1704 8.37406 45.1704 9.10986C45.1704 9.84566 45.4154 10.4502 45.9041 10.913C46.398 11.3693 46.9799 11.6033 47.651 11.6033C48.3633 11.6033 48.9625 11.3693 49.4352 10.9078C49.7468 10.6023 49.9239 10.1811 49.9705 9.64286H47.651V8.89146H50.7454C50.7827 9.05396 50.7933 9.21126 50.7933 9.36336Z" fill="black"/>
<path d="M55.7026 6.75812H52.7959V8.73412H55.4163V9.48552H52.7959V11.4615H55.7026V12.2272H51.973V5.99242H55.7026V6.75812Z" fill="black"/>
<path d="M59.1671 12.2272H58.3443V6.75812H56.5614V5.99242H60.9514V6.75812H59.1671V12.2272Z" fill="black"/>
<path d="M64.1283 12.2272V5.99242H64.9498V12.2272H64.1283Z" fill="black"/>
<path d="M68.5915 12.2272H67.7752V6.75812H65.9857V5.99242H70.381V6.75812H68.5915V12.2272Z" fill="black"/>
<path d="M78.6922 11.4252C78.0624 12.0557 77.2822 12.3703 76.3514 12.3703C75.4154 12.3703 74.6351 12.0557 74.0053 11.4252C73.3769 10.796 73.064 10.0238 73.064 9.10986C73.064 8.19596 73.3769 7.42376 74.0053 6.79456C74.6351 6.16406 75.4154 5.84946 76.3514 5.84946C77.2768 5.84946 78.0571 6.16406 78.6869 6.79976C79.3207 7.43416 79.6336 8.20116 79.6336 9.10986C79.6336 10.0238 79.3207 10.796 78.6922 11.4252ZM74.6138 10.9026C75.0878 11.3693 75.6644 11.6033 76.3514 11.6033C77.0332 11.6033 77.615 11.3693 78.0837 10.9026C78.5564 10.4359 78.7961 9.83656 78.7961 9.10986C78.7961 8.38316 78.5564 7.78386 78.0837 7.31716C77.615 6.85046 77.0332 6.61646 76.3514 6.61646C75.6644 6.61646 75.0878 6.85046 74.6138 7.31716C74.1412 7.78386 73.9015 8.38316 73.9015 9.10986C73.9015 9.83656 74.1412 10.4359 74.6138 10.9026Z" fill="black"/>
<path d="M80.788 12.2272V5.99242H81.7866L84.8916 10.8414H84.9276L84.8916 9.64282V5.99242H85.7132V12.2272H84.8557L81.6042 7.13902H81.5682L81.6042 8.34282V12.2272H80.788Z" fill="black"/>
<path d="M72.8616 21.3325C70.3597 21.3325 68.3159 23.1915 68.3159 25.7564C68.3159 28.3005 70.3597 30.179 72.8616 30.179C75.3688 30.179 77.4127 28.3005 77.4127 25.7564C77.4127 23.1915 75.3688 21.3325 72.8616 21.3325ZM72.8616 28.437C71.4888 28.437 70.3078 27.3307 70.3078 25.7564C70.3078 24.1613 71.4888 23.0745 72.8616 23.0745C74.2344 23.0745 75.4207 24.1613 75.4207 25.7564C75.4207 27.3307 74.2344 28.437 72.8616 28.437ZM62.9432 21.3325C60.436 21.3325 58.3975 23.1915 58.3975 25.7564C58.3975 28.3005 60.436 30.179 62.9432 30.179C65.4491 30.179 67.489 28.3005 67.489 25.7564C67.489 23.1915 65.4491 21.3325 62.9432 21.3325ZM62.9432 28.437C61.5691 28.437 60.3841 27.3307 60.3841 25.7564C60.3841 24.1613 61.5691 23.0745 62.9432 23.0745C64.316 23.0745 65.4971 24.1613 65.4971 25.7564C65.4971 27.3307 64.316 28.437 62.9432 28.437ZM51.1408 22.6884V24.5682H55.7385C55.604 25.6186 55.2445 26.3908 54.6933 26.929C54.0222 27.579 52.977 28.3005 51.1408 28.3005C48.3114 28.3005 46.0958 26.071 46.0958 23.3085C46.0958 20.546 48.3114 18.3165 51.1408 18.3165C52.6707 18.3165 53.7839 18.9002 54.6054 19.6568L55.9622 18.3321C54.8131 17.2609 53.2845 16.438 51.1408 16.438C47.2608 16.438 44 19.5203 44 23.3085C44 27.0967 47.2608 30.179 51.1408 30.179C53.2379 30.179 54.8131 29.5082 56.0514 28.2498C57.3203 27.0109 57.7158 25.2689 57.7158 23.8623C57.7158 23.4255 57.6785 23.0238 57.6119 22.6884H51.1408ZM99.4024 24.1457C99.0282 23.1564 97.8738 21.3325 95.5224 21.3325C93.1923 21.3325 91.2523 23.1252 91.2523 25.7564C91.2523 28.2342 93.1723 30.179 95.7461 30.179C97.8272 30.179 99.0282 28.9401 99.5222 28.2186L97.9777 27.2137C97.4624 27.9495 96.7607 28.437 95.7461 28.437C94.7381 28.437 94.0151 27.9859 93.5518 27.0967L99.6114 24.6488L99.4024 24.1457ZM93.2242 25.6186C93.1723 23.913 94.581 23.0394 95.5903 23.0394C96.3812 23.0394 97.0523 23.4255 97.276 23.978L93.2242 25.6186ZM88.299 29.9099H90.2909V16.9099H88.299V29.9099ZM85.0368 22.3179H84.9703C84.5229 21.8005 83.6694 21.3325 82.5882 21.3325C80.3193 21.3325 78.2449 23.2773 78.2449 25.7707C78.2449 28.2498 80.3193 30.179 82.5882 30.179C83.6694 30.179 84.5229 29.7071 84.9703 29.1741H85.0368V29.8085C85.0368 31.4998 84.1114 32.4085 82.6188 32.4085C81.4018 32.4085 80.6469 31.5505 80.3353 30.829L78.603 31.5349C79.1023 32.7075 80.4245 34.1505 82.6188 34.1505C84.9543 34.1505 86.9249 32.8089 86.9249 29.5446V21.6016H85.0368V22.3179ZM82.7586 28.437C81.3859 28.437 80.2368 27.3151 80.2368 25.7707C80.2368 24.212 81.3859 23.0745 82.7586 23.0745C84.1114 23.0745 85.178 24.212 85.178 25.7707C85.178 27.3151 84.1114 28.437 82.7586 28.437ZM108.728 16.9099H103.964V29.9099H105.951V24.9842H108.728C110.935 24.9842 113.098 23.4255 113.098 20.9464C113.098 18.4686 110.929 16.9099 108.728 16.9099ZM108.78 23.1759H105.951V18.7182H108.78C110.263 18.7182 111.11 19.9207 111.11 20.9464C111.11 21.9526 110.263 23.1759 108.78 23.1759ZM121.061 21.3078C119.625 21.3078 118.133 21.9266 117.519 23.2981L119.282 24.0196C119.661 23.2981 120.359 23.0641 121.097 23.0641C122.127 23.0641 123.172 23.6686 123.188 24.7359V24.8724C122.829 24.6696 122.059 24.3693 121.113 24.3693C119.214 24.3693 117.279 25.3898 117.279 27.2943C117.279 29.0363 118.834 30.1582 120.583 30.1582C121.919 30.1582 122.657 29.5693 123.12 28.8842H123.188V29.8891H125.107V24.9023C125.107 22.5974 123.344 21.3078 121.061 21.3078ZM120.821 28.4318C120.171 28.4318 119.266 28.1172 119.266 27.3307C119.266 26.3245 120.395 25.9384 121.372 25.9384C122.247 25.9384 122.657 26.1269 123.188 26.3752C123.033 27.579 121.971 28.4318 120.821 28.4318ZM132.097 21.5925L129.814 27.228H129.746L127.385 21.5925H125.243L128.79 29.4679L126.766 33.8502H128.842L134.308 21.5925H132.097ZM114.19 29.9099H116.182V16.9099H114.19V29.9099Z" fill="black"/>
<defs>
<clipPath id="clip0_52_4576">
<rect width="28.8" height="28.8" fill="white" transform="translate(7.20007 5.6)"/>
</clipPath>
</defs>
</svg>
