<svg width="177" height="40" viewBox="0 0 177 40" fill="none" xmlns="http://www.w3.org/2000/svg">
<path d="M15.1574 9.84018L3.48256 16.638L3.12593 16.8478V29.4153C3.12593 29.7825 2.64336 29.9189 2.45455 29.5937L0.587427 26.4046C0.199312 25.7437 0 24.9989 0 24.2331V15.9771C0 15.3477 0.335656 14.7497 0.881115 14.4245L13.4896 7.00776C13.7414 6.86089 14.0351 6.77697 14.3183 6.77697C14.6015 6.77697 14.8848 6.85041 15.1365 6.99727C15.6505 7.291 15.9547 7.82602 15.9547 8.41348C15.9756 9.00095 15.6609 9.53596 15.1574 9.84018Z" fill="#06A573"/>
<path d="M37.3951 30.3281L35.5909 33.7165C35.1923 34.4508 34.6049 35.0593 33.8706 35.4684L26.7482 39.3918C26.486 39.5387 26.1818 39.6121 25.8776 39.6121C25.5524 39.6121 25.2377 39.5282 24.965 39.3604L12.3041 31.8387C12.0838 31.7128 11.9055 31.524 11.7691 31.2932C11.6432 31.0624 11.5698 30.8107 11.5698 30.5484C11.5698 29.6252 12.346 29.0483 13.0698 29.0483C13.332 29.0483 13.5943 29.1217 13.8251 29.2581L25.458 36.0978L25.8251 36.3181L26.1923 36.0978L36.8916 29.8455C37.2168 29.6672 37.5734 30.0134 37.3951 30.3281Z" fill="#06A573"/>
<path d="M34.3959 6.01093V20.729C34.3959 21.306 34.0812 21.841 33.5882 22.1452C33.3259 22.2921 33.0532 22.376 32.7595 22.376C31.9728 22.376 31.1231 21.7466 31.1231 20.7395V6.94458L30.7665 6.73478L20.3818 0.671306C20.0671 0.492969 20.193 -8.39233e-05 20.5601 -8.39233e-05H24.5252C25.27 -8.39233e-05 26.0042 0.188743 26.6441 0.555908L33.4833 4.42688C34.0392 4.76257 34.3959 5.36053 34.3959 6.01093Z" fill="#06A573"/>
<path d="M26.5486 21.6103L17.3912 26.2156C16.1954 26.8136 14.7898 25.9533 14.7898 24.6106V15.4105C14.7898 14.0677 16.1954 13.197 17.3912 13.8054L26.5486 18.4107C27.8703 19.0716 27.8703 20.9494 26.5486 21.6103Z" fill="#07E992"/>
<path d="M19.6885 40.0001H15.587C14.8213 40.0001 14.0661 39.7903 13.4052 39.4021L6.6604 35.4367C6.11494 35.1115 5.76878 34.5241 5.76878 33.8842V19.208C5.76878 18.6416 6.15691 17.9177 6.6709 17.6555C6.91216 17.5296 7.15343 17.4771 7.41567 17.4771C8.20239 17.4771 9.05205 18.1065 9.05205 19.1136V32.961L9.40869 33.1708L19.8878 39.3287C20.1815 39.5175 20.0556 40.0001 19.6885 40.0001Z" fill="#07E992"/>
<path d="M26.1304 10.5112L14.7807 3.92324L14.424 3.71343L14.0674 3.91275L3.21066 9.97622C2.89598 10.1546 2.5498 9.80837 2.71763 9.48317L4.54286 6.16819C4.94146 5.45484 5.52886 4.85689 6.25264 4.45825L13.3436 0.587278C13.6059 0.440412 13.8995 0.366982 14.2037 0.366982C14.5079 0.366982 14.8122 0.450906 15.0849 0.597772L27.6933 7.65783C28.2073 7.95156 28.564 8.47609 28.5745 9.07404C28.5954 10.1021 27.7353 10.742 26.9486 10.742C26.6653 10.7315 26.3926 10.6581 26.1304 10.5112Z" fill="#07E992"/>
<path d="M40.1021 15.5677V23.9915C40.1021 24.6314 39.756 25.2189 39.2 25.5441L26.4447 32.9398C26.2034 33.0762 25.9307 33.1496 25.6475 33.1496C25.2698 33.1496 24.9132 33.0237 24.609 32.7615C24.3153 32.5097 24.116 32.153 24.074 31.7754C23.9901 31.125 24.2838 30.5165 24.8398 30.1913L36.4308 23.2781L36.7769 23.0683V10.1231C36.7769 9.75595 37.2594 9.63007 37.4482 9.94478L39.4937 13.3542C39.8818 14.0046 40.1021 14.7809 40.1021 15.5677Z" fill="#07E992"/>
<path d="M64.7423 10.3993H49.2431V14.2537H54.906V29.6478H59.0793V14.2537H64.7423V10.3993Z" fill="white"/>
<path d="M70.7827 14.9751C66.4084 14.9751 63.4292 18.3566 63.4292 22.4475C63.4292 26.964 66.7513 30.0263 71.1492 30.0263C74.1521 30.0263 76.5048 28.572 77.7343 26.0182L74.6132 24.4457C73.9511 25.7581 72.6625 26.5029 71.1256 26.5029C69.0921 26.5029 67.638 25.2496 67.3542 23.3579H77.8762V22.1519C77.888 18.2857 75.2752 14.9751 70.7827 14.9751ZM67.5316 21.0996C67.8153 19.669 68.9857 18.5222 70.7591 18.5222C72.4733 18.5222 73.6792 19.6336 73.8447 21.0996H67.5316Z" fill="white"/>
<path d="M95.0075 15.4836H90.4322L88.0323 19.4562C87.8904 19.6927 87.7485 19.9528 87.6421 20.2247C87.5357 20.4967 87.2756 20.6859 86.9801 20.6859H86.8264C86.5308 20.6859 86.2707 20.4967 86.1643 20.2247C86.0579 19.9528 85.916 19.6927 85.7742 19.4562L83.3742 15.4836H78.7753L82.1802 21.0642C82.5467 21.6672 82.724 22.1283 82.724 22.5776C82.724 23.0623 82.523 23.5826 82.0974 24.2683L78.7753 29.648H83.327L85.7624 25.7226C85.9397 25.427 86.1052 25.1078 86.2353 24.7649C86.3417 24.493 86.6018 24.3156 86.8855 24.3156C87.1692 24.3156 87.4293 24.493 87.5357 24.7649C87.6658 25.096 87.8313 25.427 88.0086 25.7226L90.444 29.648H94.9956L91.6736 24.2683C91.248 23.5826 91.047 23.0623 91.047 22.5776C91.047 22.1165 91.2243 21.6672 91.5908 21.0642L95.0075 15.4836Z" fill="white"/>
<path d="M102.846 11.8774H98.7792V15.4835H96.1783V18.9123H98.7792V24.0318C98.7792 27.5788 100.813 30.0381 104.903 30.0381C105.908 30.0381 107.138 29.8134 107.847 29.3523V25.7226C107.161 26.1482 106.097 26.4083 105.27 26.4083C103.78 26.4083 102.834 25.4979 102.834 23.9136V18.9123H107.835V15.4835H102.834V11.8774H102.846Z" fill="white"/>
<path d="M126.479 10.3994H119.705V29.6597L123.878 29.636V24.5756H126.716C132.012 24.5756 135.299 22.0572 135.299 17.4225C135.287 12.9414 131.941 10.3994 126.479 10.3994ZM126.597 20.6976H123.878V14.2656H126.597C129.34 14.2656 131.007 15.2943 131.007 17.4107C130.995 19.6335 129.34 20.6976 126.597 20.6976Z" fill="white"/>
<path d="M141.434 10.3996H137.367V29.6598H141.434V10.3996Z" fill="white"/>
<path d="M151.685 15.0581C147.335 15.0581 144.013 18.4632 144.013 22.5304C144.013 26.6449 146.897 30.0264 151.023 30.0264C152.974 30.0264 154.511 29.2579 155.516 27.9928V29.6481H159.382V22.5186C159.382 18.2622 156.119 15.0581 151.685 15.0581ZM151.685 26.2193C149.593 26.2193 148.08 24.564 148.08 22.5541C148.08 20.5559 149.593 18.8888 151.685 18.8888C153.778 18.8888 155.315 20.5441 155.315 22.5541C155.315 24.5522 153.778 26.2193 151.685 26.2193Z" fill="white"/>
<path d="M172.468 15.4836V22.4357C172.468 24.4693 171.097 25.9827 169.264 25.9827C167.266 25.9827 166.143 24.5757 166.143 22.5185V15.4836H162.136V22.6604C162.136 26.8695 164.134 29.8135 168.744 29.8135C170.494 29.8135 171.747 29.1868 172.516 28.04V28.442C172.516 31.0786 171.109 32.8521 168.685 32.8521C166.853 32.8521 165.599 31.9062 164.961 30.6766L161.615 32.5092C162.904 35.1458 165.363 36.5764 168.744 36.5764C173.402 36.5764 176.582 33.3487 176.582 28.3947V15.4836H172.468Z" fill="white"/>
</svg>
