<svg width="24" height="24" viewBox="0 0 24 24" fill="none" xmlns="http://www.w3.org/2000/svg">
<g clip-path="url(#clip0_2030_1203)">
<path d="M1.83005 1.82043L2.88005 0.91043C4.09005 -0.29957 6.05006 -0.29957 7.26006 0.91043C7.29006 0.94043 9.14006 3.35043 9.14006 3.35043C10.2801 4.55043 10.2801 6.44043 9.14006 7.63043L7.98005 9.09043C9.44006 12.4004 11.7101 14.6804 14.9101 16.0404L16.3701 14.8704C17.5601 13.7204 19.4601 13.7204 20.6501 14.8704C20.6501 14.8704 23.0601 16.7204 23.0901 16.7504C24.3001 17.9604 24.3001 19.9204 23.1401 21.0804L22.1401 22.2304C20.9901 23.3804 19.4401 24.0104 17.7601 24.0104C10.1201 24.0104 5.4359e-05 13.8804 5.4359e-05 6.25043C5.4359e-05 4.58043 0.630054 3.02043 1.83005 1.83043V1.82043ZM17.7601 22.0004C18.9001 22.0004 19.9501 21.5804 20.6701 20.8504L21.6701 19.7004C22.0801 19.2904 22.1001 18.6204 21.7101 18.1904C21.7101 18.1904 19.3201 16.3504 19.2901 16.3204C18.8801 15.9104 18.1601 15.9104 17.7401 16.3204C17.7101 16.3504 15.7001 17.9604 15.7001 17.9604C15.4201 18.1804 15.0501 18.2404 14.7201 18.1104C10.5801 16.5304 7.61005 13.5704 5.90005 9.30043C5.77005 8.97043 5.82005 8.59043 6.05005 8.30043C6.05005 8.30043 7.66006 6.28043 7.68006 6.26043C8.11006 5.83043 8.11006 5.14043 7.68006 4.71043C7.65006 4.68043 5.81005 2.29043 5.81005 2.29043C5.38005 1.90043 4.71005 1.91043 4.25005 2.37043L3.20006 3.28043C2.43006 4.05043 2.00005 5.10043 2.00005 6.24043C2.00005 13.2004 11.7701 22.0004 17.7601 22.0004Z" fill="white"/>
</g>
<defs>
<clipPath id="clip0_2030_1203">
<rect width="24" height="24" fill="white" transform="matrix(-1 0 0 1 24 0)"/>
</clipPath>
</defs>
</svg>
