<svg width="40" height="41" viewBox="0 0 40 41" fill="none" xmlns="http://www.w3.org/2000/svg">
<path d="M9.29688 19.5234V22.7266H17.3438V40.0703H0V22.7266V19.5234C0 17.8828 0.117188 16.3594 0.351562 14.9531C0.585938 13.5208 0.9375 12.1992 1.40625 10.9883C1.875 9.77734 2.46094 8.6901 3.16406 7.72656C3.86719 6.73698 4.67448 5.86458 5.58594 5.10938C6.86198 4.04167 8.3138 3.24739 9.94141 2.72656C11.569 2.20573 13.3333 1.94531 15.2344 1.94531V11.2031C14.1927 11.2031 12.9427 11.5482 11.4844 12.2383C10.026 12.9284 9.29688 15.3568 9.29688 19.5234ZM37.9297 11.2031V1.94531C36.0026 1.94531 34.2318 2.20573 32.6172 2.72656C31.0026 3.24739 29.5573 4.04167 28.2812 5.10938C27.3438 5.86458 26.5234 6.73698 25.8203 7.72656C25.1172 8.6901 24.5312 9.77734 24.0625 10.9883C23.5938 12.1992 23.2422 13.5208 23.0078 14.9531C22.7734 16.3594 22.6562 17.8828 22.6562 19.5234V40.0703H40V22.7266H31.9531V19.5234C31.9531 15.3568 32.6888 12.9284 34.1602 12.2383C35.6315 11.5482 36.888 11.2031 37.9297 11.2031Z" fill="#8BA09E"/>
</svg>
