<svg width="12" height="21" viewBox="0 0 12 21" fill="none" xmlns="http://www.w3.org/2000/svg">
<path d="M0.421875 0.117186C0.140625 0.287107 0 0.556639 0 0.925779C0 1.0957 0.0292969 1.29492 0.0644531 1.36523C0.0996094 1.43554 2.10937 3.48047 4.53516 5.90039L8.93555 10.3125L4.53516 14.7187C2.10937 17.1445 0.0996094 19.1895 0.0644531 19.2598C0.0292969 19.3301 0 19.5293 0 19.6992C0 20.2676 0.357422 20.625 0.925781 20.625C1.0957 20.625 1.30664 20.5898 1.39453 20.543C1.58789 20.4375 11.0918 10.9219 11.1855 10.7402C11.2793 10.5586 11.2676 10.043 11.168 9.85547C11.0625 9.66211 1.54687 0.158201 1.36523 0.0644512C1.1543 -0.0410175 0.638672 -0.0117207 0.421875 0.117186Z" fill="#69697F"/>
</svg>
