<svg width="54" height="54" viewBox="0 0 54 54" fill="none" xmlns="http://www.w3.org/2000/svg">
<rect width="54" height="54" rx="27" fill="#D9D9D9"/>
<g clip-path="url(#clip0_1918_5227)">
<path d="M27.6885 36.9927C27.2996 36.6738 27.0837 36.3124 27 35.8121C26.948 35.282 27.1244 34.836 27.4219 34.4058C27.5755 34.2266 27.7414 34.0606 27.9089 33.8946C27.9579 33.8454 28.0068 33.7961 28.0557 33.7468C28.1876 33.6141 28.32 33.4819 28.4526 33.3499C28.5921 33.2109 28.7312 33.0714 28.8703 32.932C29.1041 32.6979 29.3382 32.4642 29.5726 32.2307C29.8423 31.962 30.1113 31.6927 30.38 31.423C30.6118 31.1903 30.844 30.958 31.0765 30.7259C31.2149 30.5879 31.3531 30.4497 31.491 30.3112C31.6209 30.1807 31.7513 30.0508 31.882 29.9211C31.9294 29.8739 31.9767 29.8266 32.0239 29.779C32.4302 29.3694 32.8558 29.0362 33.375 28.7808C33.3394 28.7808 33.3038 28.7807 33.2671 28.7807C31.1553 28.778 29.0435 28.7745 26.9317 28.7701C26.6782 28.7696 26.4246 28.769 26.171 28.7685C26.1205 28.7684 26.07 28.7683 26.018 28.7682C25.2007 28.7666 24.3833 28.7654 23.566 28.7644C22.7273 28.7634 21.8885 28.7618 21.0498 28.7598C20.5323 28.7586 20.0148 28.7577 19.4973 28.7574C19.1424 28.7572 18.7875 28.7564 18.4326 28.7552C18.2279 28.7546 18.0231 28.7542 17.8184 28.7543C17.6308 28.7545 17.4432 28.754 17.2556 28.753C17.1879 28.7528 17.1201 28.7528 17.0524 28.753C16.4291 28.7551 15.9319 28.6646 15.4699 28.2236C15.0739 27.7948 14.9766 27.3855 14.987 26.8146C15.0093 26.3351 15.2802 25.9469 15.6241 25.6285C15.9386 25.372 16.2953 25.2597 16.6958 25.2587C16.7556 25.2584 16.8155 25.2582 16.8771 25.2579C16.9436 25.2579 17.0101 25.2578 17.0766 25.2578C17.1471 25.2576 17.2177 25.2573 17.2882 25.2571C17.4823 25.2564 17.6765 25.2561 17.8706 25.2558C18.0798 25.2554 18.289 25.2548 18.4983 25.2542C18.8608 25.2532 19.2234 25.2523 19.586 25.2516C20.1103 25.2505 20.6345 25.2492 21.1588 25.2478C22.0093 25.2456 22.8598 25.2435 23.7103 25.2416C24.5366 25.2398 25.3629 25.2379 26.1892 25.2358C26.2401 25.2357 26.291 25.2355 26.3435 25.2354C26.5989 25.2348 26.8544 25.2341 27.1098 25.2335C29.2295 25.2281 31.3491 25.2231 33.4688 25.2183C33.4306 25.1998 33.3925 25.1812 33.3532 25.1621C33.3029 25.1373 33.2526 25.1125 33.2007 25.087C33.151 25.0627 33.1012 25.0383 33.0499 25.0132C32.3092 24.6207 31.7014 23.8804 31.1165 23.294C30.9928 23.1701 30.8689 23.0464 30.745 22.9228C30.6653 22.8431 30.5856 22.7634 30.506 22.6836C30.4512 22.6289 30.4512 22.6289 30.3953 22.5732C30.2377 22.4149 30.0838 22.2561 29.9388 22.0861C29.7344 21.8491 29.51 21.6324 29.2867 21.4135C29.1793 21.308 29.0723 21.2022 28.9654 21.0963C28.767 20.9001 28.5685 20.7041 28.3692 20.5089C28.2298 20.3722 28.0909 20.2349 27.9523 20.0973C27.8999 20.0454 27.8472 19.9937 27.7943 19.9422C27.3449 19.5046 27.0134 19.0602 26.9854 18.4097C26.9986 17.9593 27.1221 17.5439 27.4219 17.2027C27.8191 16.8281 28.2835 16.6707 28.8207 16.6772C29.4195 16.7172 29.8351 17.0631 30.2428 17.4739C30.279 17.5097 30.3151 17.5456 30.3524 17.5825C30.4725 17.7019 30.5922 17.8218 30.7118 17.9417C30.7982 18.0277 30.8846 18.1137 30.9711 18.1997C31.181 18.4086 31.3904 18.6179 31.5998 18.8273C31.77 18.9976 31.9404 19.1678 32.1108 19.3379C32.1601 19.387 32.2093 19.4362 32.2585 19.4853C32.283 19.5098 32.3075 19.5342 32.3328 19.5594C32.7955 20.0212 33.2577 20.4835 33.7198 20.9459C34.1419 21.3683 34.5647 21.7901 34.9877 22.2116C35.4228 22.6451 35.8575 23.0791 36.2918 23.5135C36.5353 23.7571 36.7789 24.0005 37.023 24.2435C37.2526 24.472 37.4816 24.7011 37.7102 24.9306C37.794 25.0146 37.878 25.0983 37.9622 25.1819C38.0775 25.2963 38.192 25.4115 38.3064 25.5268C38.3396 25.5594 38.3727 25.592 38.4069 25.6256C38.8374 26.0637 39.0178 26.5013 39.0176 27.1074C39.0065 27.5817 38.8525 27.9097 38.5261 28.2538C38.5017 28.2799 38.4773 28.3059 38.4522 28.3327C38.1037 28.7023 37.7434 29.0604 37.3844 29.4197C37.3032 29.501 37.2221 29.5824 37.141 29.6638C36.9223 29.8831 36.7035 30.1022 36.4846 30.3212C36.3477 30.4583 36.2108 30.5954 36.0739 30.7325C35.6939 31.1131 35.3138 31.4937 34.9335 31.8741C34.8972 31.9105 34.8972 31.9105 34.8601 31.9475C34.8237 31.984 34.8237 31.984 34.7866 32.0211C34.7374 32.0703 34.6883 32.1195 34.6391 32.1687C34.6147 32.193 34.5903 32.2174 34.5652 32.2426C34.1693 32.6387 33.7736 33.0352 33.3781 33.4318C32.9707 33.8403 32.5631 34.2485 32.1552 34.6564C31.9267 34.8849 31.6984 35.1136 31.4703 35.3425C31.256 35.5576 31.0414 35.7723 30.8265 35.9867C30.7479 36.0653 30.6694 36.1441 30.591 36.2229C30.4837 36.3308 30.376 36.4382 30.2682 36.5455C30.2376 36.5765 30.2069 36.6076 30.1753 36.6396C29.4858 37.3219 28.5347 37.5916 27.6885 36.9927Z" fill="black"/>
</g>
<defs>
<clipPath id="clip0_1918_5227">
<rect width="24" height="24" fill="white" transform="matrix(-1 0 0 -1 39 39)"/>
</clipPath>
</defs>
</svg>
