<svg width="54" height="54" viewBox="0 0 54 54" fill="none" xmlns="http://www.w3.org/2000/svg">
<rect width="54" height="54" rx="27" fill="#D9D9D9"/>
<g clip-path="url(#clip0_1918_5231)">
<path d="M26.3115 17.0073C26.7004 17.3262 26.9163 17.6876 27 18.1879C27.052 18.718 26.8756 19.164 26.5781 19.5942C26.4245 19.7734 26.2586 19.9394 26.0911 20.1054C26.0421 20.1546 25.9932 20.2039 25.9443 20.2532C25.8124 20.3859 25.68 20.5181 25.5474 20.6501C25.4079 20.7891 25.2688 20.9286 25.1297 21.068C24.8959 21.3021 24.6618 21.5358 24.4274 21.7693C24.1577 22.038 23.8887 22.3073 23.62 22.577C23.3882 22.8097 23.156 23.042 22.9235 23.2741C22.7851 23.4121 22.6469 23.5503 22.509 23.6888C22.3791 23.8193 22.2487 23.9492 22.118 24.0789C22.0706 24.1261 22.0233 24.1734 21.9761 24.221C21.5698 24.6306 21.1442 24.9638 20.625 25.2192C20.6606 25.2192 20.6962 25.2193 20.7329 25.2193C22.8447 25.222 24.9565 25.2255 27.0683 25.2299C27.3218 25.2304 27.5754 25.231 27.829 25.2315C27.8795 25.2316 27.93 25.2317 27.982 25.2318C28.7993 25.2334 29.6167 25.2346 30.434 25.2356C31.2727 25.2366 32.1115 25.2382 32.9502 25.2402C33.4677 25.2414 33.9852 25.2423 34.5027 25.2426C34.8576 25.2428 35.2125 25.2436 35.5674 25.2448C35.7721 25.2454 35.9769 25.2458 36.1816 25.2457C36.3692 25.2455 36.5568 25.246 36.7444 25.247C36.8121 25.2472 36.8799 25.2472 36.9476 25.247C37.5709 25.2449 38.0681 25.3354 38.5301 25.7764C38.9261 26.2052 39.0234 26.6145 39.013 27.1854C38.9907 27.6649 38.7198 28.0531 38.3759 28.3715C38.0614 28.628 37.7047 28.7403 37.3042 28.7413C37.2444 28.7416 37.1845 28.7418 37.1229 28.7421C37.0564 28.7421 36.9899 28.7422 36.9234 28.7422C36.8529 28.7424 36.7823 28.7427 36.7118 28.7429C36.5177 28.7436 36.3235 28.7439 36.1294 28.7442C35.9202 28.7446 35.711 28.7452 35.5017 28.7458C35.1392 28.7468 34.7766 28.7477 34.414 28.7484C33.8897 28.7495 33.3655 28.7508 32.8412 28.7522C31.9907 28.7544 31.1402 28.7565 30.2897 28.7584C29.4634 28.7602 28.6371 28.7621 27.8108 28.7642C27.7599 28.7643 27.709 28.7645 27.6565 28.7646C27.4011 28.7652 27.1456 28.7659 26.8902 28.7665C24.7705 28.7719 22.6509 28.7769 20.5312 28.7817C20.5694 28.8002 20.6075 28.8188 20.6468 28.8379C20.6971 28.8627 20.7474 28.8875 20.7993 28.913C20.849 28.9373 20.8988 28.9617 20.9501 28.9868C21.6908 29.3793 22.2986 30.1196 22.8835 30.706C23.0072 30.8299 23.1311 30.9536 23.255 31.0772C23.3347 31.1569 23.4144 31.2366 23.494 31.3164C23.5488 31.3711 23.5488 31.3711 23.6047 31.4268C23.7623 31.5851 23.9162 31.7439 24.0612 31.9139C24.2656 32.1509 24.49 32.3676 24.7133 32.5865C24.8207 32.692 24.9277 32.7978 25.0346 32.9037C25.233 33.0999 25.4315 33.2959 25.6308 33.4911C25.7702 33.6278 25.9091 33.7651 26.0477 33.9027C26.1001 33.9546 26.1528 34.0063 26.2057 34.0578C26.6551 34.4954 26.9866 34.9398 27.0146 35.5903C27.0014 36.0407 26.8779 36.4561 26.5781 36.7973C26.1809 37.1719 25.7165 37.3293 25.1793 37.3228C24.5805 37.2828 24.1649 36.9369 23.7572 36.5261C23.721 36.4903 23.6849 36.4544 23.6476 36.4175C23.5275 36.2981 23.4078 36.1782 23.2882 36.0583C23.2018 35.9723 23.1154 35.8863 23.0289 35.8003C22.819 35.5914 22.6096 35.3821 22.4002 35.1727C22.23 35.0024 22.0596 34.8322 21.8892 34.6621C21.8399 34.613 21.7907 34.5638 21.7415 34.5147C21.717 34.4902 21.6925 34.4658 21.6672 34.4406C21.2045 33.9788 20.7423 33.5165 20.2802 33.0541C19.8581 32.6317 19.4353 32.2099 19.0123 31.7884C18.5772 31.3549 18.1425 30.9209 17.7082 30.4865C17.4647 30.2429 17.2211 29.9995 16.977 29.7565C16.7474 29.528 16.5184 29.2989 16.2898 29.0694C16.206 28.9854 16.122 28.9017 16.0378 28.8181C15.9225 28.7037 15.808 28.5885 15.6936 28.4732C15.6604 28.4406 15.6273 28.408 15.5931 28.3744C15.1626 27.9363 14.9822 27.4987 14.9824 26.8926C14.9935 26.4183 15.1475 26.0903 15.4739 25.7462C15.4983 25.7201 15.5227 25.6941 15.5478 25.6673C15.8963 25.2977 16.2566 24.9396 16.6156 24.5803C16.6968 24.499 16.7779 24.4176 16.859 24.3362C17.0777 24.1169 17.2965 23.8978 17.5154 23.6788C17.6523 23.5417 17.7892 23.4046 17.9261 23.2675C18.3061 22.8869 18.6862 22.5063 19.0665 22.1259C19.1028 22.0895 19.1028 22.0895 19.1399 22.0525C19.1763 22.016 19.1763 22.016 19.2134 21.9789C19.2626 21.9297 19.3117 21.8805 19.3609 21.8313C19.3853 21.807 19.4097 21.7826 19.4348 21.7574C19.8307 21.3613 20.2264 20.9648 20.6219 20.5682C21.0293 20.1597 21.4369 19.7515 21.8448 19.3436C22.0733 19.1151 22.3016 18.8864 22.5297 18.6575C22.744 18.4424 22.9586 18.2277 23.1735 18.0133C23.2521 17.9347 23.3306 17.8559 23.409 17.7771C23.5163 17.6692 23.624 17.5618 23.7318 17.4545C23.7624 17.4235 23.7931 17.3924 23.8247 17.3604C24.5142 16.6781 25.4653 16.4084 26.3115 17.0073Z" fill="black"/>
</g>
<defs>
<clipPath id="clip0_1918_5231">
<rect width="24" height="24" fill="white" transform="translate(15 15)"/>
</clipPath>
</defs>
</svg>
