<svg width="16" height="16" viewBox="0 0 16 16" fill="none" xmlns="http://www.w3.org/2000/svg">
<path d="M6.6243 10.3333C6.56478 10.1026 6.44453 9.89206 6.27605 9.72358C6.10757 9.5551 5.89702 9.43485 5.6663 9.37533L1.5763 8.32066C1.50652 8.30085 1.44511 8.25883 1.40138 8.20096C1.35765 8.14309 1.33398 8.07253 1.33398 7.99999C1.33398 7.92746 1.35765 7.8569 1.40138 7.79903C1.44511 7.74116 1.50652 7.69913 1.5763 7.67933L5.6663 6.62399C5.89693 6.56453 6.10743 6.44438 6.2759 6.27602C6.44438 6.10766 6.56468 5.89725 6.6243 5.66666L7.67897 1.57666C7.69857 1.50661 7.74056 1.44489 7.79851 1.40092C7.85647 1.35696 7.92722 1.33316 7.99997 1.33316C8.07271 1.33316 8.14346 1.35696 8.20142 1.40092C8.25938 1.44489 8.30136 1.50661 8.32097 1.57666L9.37497 5.66666C9.43449 5.89737 9.55474 6.10792 9.72322 6.27641C9.8917 6.44489 10.1023 6.56514 10.333 6.62466L14.423 7.67866C14.4933 7.69806 14.5553 7.74 14.5995 7.79804C14.6437 7.85609 14.6677 7.92703 14.6677 7.99999C14.6677 8.07295 14.6437 8.1439 14.5995 8.20194C14.5553 8.25999 14.4933 8.30193 14.423 8.32133L10.333 9.37533C10.1023 9.43485 9.8917 9.5551 9.72322 9.72358C9.55474 9.89206 9.43449 10.1026 9.37497 10.3333L8.3203 14.4233C8.3007 14.4934 8.25871 14.5551 8.20075 14.5991C8.1428 14.643 8.07205 14.6668 7.9993 14.6668C7.92656 14.6668 7.85581 14.643 7.79785 14.5991C7.73989 14.5551 7.69791 14.4934 7.6783 14.4233L6.6243 10.3333Z" stroke="#07E992" stroke-width="1.33333" stroke-linecap="round" stroke-linejoin="round"/>
<path d="M13.334 2V4.66667" stroke="#07E992" stroke-width="1.33333" stroke-linecap="round" stroke-linejoin="round"/>
<path d="M14.6667 3.33334H12" stroke="#07E992" stroke-width="1.33333" stroke-linecap="round" stroke-linejoin="round"/>
<path d="M2.66602 11.3333V12.6667" stroke="#07E992" stroke-width="1.33333" stroke-linecap="round" stroke-linejoin="round"/>
<path d="M3.33333 12H2" stroke="#07E992" stroke-width="1.33333" stroke-linecap="round" stroke-linejoin="round"/>
</svg>
