<svg width="40" height="40" viewBox="0 0 40 40" fill="none" xmlns="http://www.w3.org/2000/svg">
<path d="M18.7123 5.34724C19.28 4.88425 20.0949 4.88425 20.6626 5.34724L21.8865 6.34548C22.2718 6.65962 22.7847 6.76898 23.2643 6.63925L24.785 6.22826C25.4911 6.03739 26.2342 6.36866 26.5644 7.0214L27.2829 8.44229C27.5065 8.88448 27.9288 9.19236 28.4183 9.26991L29.981 9.51749C30.701 9.63154 31.2431 10.2341 31.2804 10.9623L31.3626 12.5653C31.3879 13.0582 31.6476 13.5092 32.0611 13.7787L33.3981 14.6503C34.0069 15.0472 34.2563 15.8153 33.9965 16.4942L33.4213 17.9975C33.2452 18.4573 33.2994 18.9735 33.5668 19.3869L34.4401 20.7364C34.8346 21.3463 34.7503 22.1487 34.2376 22.6635L33.1067 23.7988C32.7589 24.148 32.5988 24.6422 32.6759 25.1289L32.9276 26.7179C33.0413 27.4368 32.6372 28.1374 31.958 28.399L30.4753 28.9699C30.0139 29.1477 29.6655 29.5357 29.5385 30.0137L29.128 31.5593C28.9405 32.2653 28.2837 32.743 27.5544 32.7039L25.9793 32.6197C25.4836 32.5932 25.0054 32.8067 24.6944 33.1935L23.7011 34.429C23.2423 34.9997 22.4455 35.1693 21.794 34.8348L20.3921 34.115C19.9498 33.8881 19.4252 33.8881 18.9829 34.115L17.5809 34.8348C16.9295 35.1693 16.1328 34.9997 15.6739 34.429L14.6806 33.1935C14.3696 32.8067 13.8914 32.5932 13.3957 32.6197L11.8206 32.7039C11.0913 32.743 10.4345 32.2653 10.247 31.5593L9.83641 30.0137C9.70945 29.5357 9.36115 29.1477 8.89964 28.9699L7.41694 28.399C6.73769 28.1374 6.33367 27.4368 6.44746 26.7179L6.6991 25.1289C6.77612 24.6422 6.61603 24.148 6.26826 23.7988L5.13731 22.6635C4.62468 22.1487 4.54044 21.3463 4.93501 20.7364L5.8081 19.3869C6.07562 18.9735 6.12968 18.4573 5.95371 17.9975L5.37846 16.4942C5.11865 15.8153 5.36794 15.0472 5.97688 14.6503L7.31393 13.7787C7.72737 13.5092 7.98698 13.0582 8.01224 12.5653L8.09452 10.9623C8.13191 10.2341 8.67383 9.63154 9.39391 9.51749L10.9567 9.26991C11.4461 9.19236 11.8685 8.88448 12.0921 8.44229L12.8107 7.0214C13.1408 6.36866 13.8839 6.03739 14.5901 6.22826L16.1106 6.63925C16.5904 6.76898 17.1032 6.65962 17.4883 6.34548L18.7123 5.34724Z" fill="#505050"/>
</svg>
