<svg width="90" height="90" viewBox="0 0 90 90" fill="none" xmlns="http://www.w3.org/2000/svg">
<rect width="90" height="90" rx="45" fill="#07E992"/>
<path d="M30.9994 65.0015C32.0603 65.0015 33.0777 64.58 33.8278 63.8299C34.578 63.0797 34.9994 62.0623 34.9994 61.0015V49.0015C34.9994 47.9406 34.578 46.9232 33.8278 46.173C33.0777 45.4229 32.0603 45.0015 30.9994 45.0015V43.0015C30.9994 39.2884 32.4744 35.7275 35.0999 33.102C37.7254 30.4765 41.2864 29.0015 44.9994 29.0015C48.7124 29.0015 52.2734 30.4765 54.8989 33.102C57.5244 35.7275 58.9994 39.2884 58.9994 43.0015V45.0015C57.9385 45.0015 56.9211 45.4229 56.171 46.173C55.4208 46.9232 54.9994 47.9406 54.9994 49.0015V61.0015H48.9994C48.469 61.0015 47.9603 61.2122 47.5852 61.5872C47.2101 61.9623 46.9994 62.471 46.9994 63.0015C46.9994 63.5319 47.2101 64.0406 47.5852 64.4157C47.9603 64.7908 48.469 65.0015 48.9994 65.0015H58.9994C61.2914 64.9946 63.5115 64.2006 65.2881 62.7524C67.0646 61.3041 68.2897 59.2896 68.7583 57.046C69.2269 54.8023 68.9105 52.4658 67.8622 50.4276C66.8138 48.3894 65.0971 46.7731 62.9994 45.8495V43.0015C62.9994 38.2276 61.103 33.6492 57.7273 30.2735C54.3517 26.8979 49.7733 25.0015 44.9994 25.0015C40.2255 25.0015 35.6471 26.8979 32.2715 30.2735C28.8958 33.6492 26.9994 38.2276 26.9994 43.0015V45.8495C24.9017 46.7731 23.185 48.3894 22.1367 50.4276C21.0883 52.4658 20.7719 54.8023 21.2405 57.046C21.7091 59.2896 22.9342 61.3041 24.7108 62.7524C26.4873 64.2006 28.7074 64.9946 30.9994 65.0015Z" fill="black"/>
</svg>
