<svg width="90" height="90" viewBox="0 0 90 90" fill="none" xmlns="http://www.w3.org/2000/svg">
<rect width="90" height="90" rx="45" fill="#07E992"/>
<path d="M55.9697 26.7485C60.7367 25.1596 63.1208 24.3654 64.3789 25.6235C65.6367 26.8817 64.8418 29.2651 63.2529 34.0317L56.3174 54.8394C54.0593 61.6137 52.9303 65.0011 50.8555 65.0015C48.7804 65.0015 47.6508 61.6141 45.3926 54.8394L43.7461 49.8979C43.6729 49.6783 43.6034 49.4773 43.54 49.2915L54.9434 37.8892C55.7243 37.1082 55.7242 35.8421 54.9434 35.061C54.1623 34.2801 52.8962 34.28 52.1152 35.061L40.7129 46.4624C40.5265 46.3988 40.3241 46.3299 40.1035 46.2563L35.1631 44.6089C28.3885 42.3507 25.0002 41.2219 25 39.147C25 37.0719 28.3883 35.9423 35.1631 33.6841L55.9697 26.7485Z" fill="black"/>
</svg>
