<svg width="90" height="90" viewBox="0 0 90 90" fill="none" xmlns="http://www.w3.org/2000/svg">
<rect width="90" height="90" rx="45" fill="#07E992"/>
<g clip-path="url(#clip0_766_8471)">
<path d="M64.2687 60.7435L56.5268 52.9983C62.3196 45.257 60.7401 34.2854 52.9988 28.4925C45.2575 22.6996 34.2859 24.2792 28.493 32.0204C22.7001 39.7617 24.2796 50.7334 32.0209 56.5263C38.2394 61.1796 46.7803 61.1796 52.9988 56.5263L60.744 64.2714C61.7173 65.2448 63.2953 65.2448 64.2686 64.2714C65.2419 63.2981 65.2419 61.7201 64.2686 60.7468L64.2687 60.7435ZM42.5744 55.0314C35.6943 55.0314 30.117 49.454 30.117 42.5739C30.117 35.6938 35.6943 30.1165 42.5744 30.1165C49.4545 30.1165 55.0319 35.6938 55.0319 42.5739C55.0245 49.4509 49.4515 55.0241 42.5744 55.0314Z" fill="black"/>
</g>
<defs>
<clipPath id="clip0_766_8471">
<rect width="40" height="40" fill="white" transform="translate(25 25.0015)"/>
</clipPath>
</defs>
</svg>
