<svg width="151" height="151" viewBox="0 0 151 151" fill="none" xmlns="http://www.w3.org/2000/svg">
<path d="M146.773 86.8394C147.355 83.0894 150.56 79.478 150.56 75.5601C150.56 71.6428 147.356 68.0307 146.773 64.2807C146.161 60.4288 148.084 56.0018 146.904 52.3757C145.71 48.6837 141.545 46.2377 139.805 42.8295C138.05 39.3853 138.501 34.5792 136.237 31.4702C133.972 28.3539 129.254 27.3051 126.53 24.5892C123.814 21.866 122.766 17.1479 119.649 14.8831C116.54 12.6183 111.734 13.07 108.29 11.315C104.883 9.57458 102.436 5.40947 98.7439 4.21544C95.1178 3.03607 90.6908 4.95837 86.8389 4.34669C83.0889 3.76434 79.4775 0.560059 75.5596 0.560059C71.6423 0.560059 68.0303 3.76367 64.2803 4.34669C60.4283 4.95837 56.0013 3.03607 52.3753 4.21544C48.6832 5.40947 46.2372 9.57458 42.829 11.315C39.3849 13.07 34.5788 12.6183 31.4698 14.8831C28.3534 17.1479 27.3046 21.866 24.5888 24.5892C21.8655 27.3051 17.1474 28.3539 14.8826 31.4702C12.6178 34.5792 13.0696 39.3853 11.3145 42.8295C9.5741 46.237 5.40899 48.6837 4.21496 52.3757C3.03559 56.0018 4.95789 60.4288 4.34622 64.2807C3.76386 68.0307 0.55957 71.6421 0.55957 75.5601C0.55957 79.4773 3.7632 83.0894 4.34622 86.8394C4.95789 90.6913 3.03559 95.1183 4.21496 98.7443C5.40899 102.436 9.5741 104.882 11.3145 108.291C13.0696 111.735 12.6178 116.541 14.8826 119.65C17.1474 122.766 21.8655 123.815 24.5888 126.531C27.3046 129.254 28.3534 133.973 31.4698 136.237C34.5788 138.502 39.3849 138.05 42.829 139.805C46.2365 141.546 48.6832 145.711 52.3753 146.905C56.0013 148.084 60.4283 146.162 64.2803 146.773C68.0303 147.356 71.6417 150.56 75.5596 150.56C79.4768 150.56 83.0889 147.356 86.8389 146.773C90.6908 146.162 95.1178 148.084 98.7439 146.905C102.436 145.711 104.882 141.546 108.29 139.805C111.734 138.05 116.54 138.502 119.649 136.237C122.766 133.972 123.814 129.254 126.53 126.531C129.254 123.815 133.972 122.766 136.237 119.65C138.501 116.541 138.05 111.735 139.805 108.291C141.545 104.883 145.71 102.436 146.904 98.7443C148.084 95.1189 146.161 90.6913 146.773 86.8394ZM112.105 24.6479L127.521 37.9948L69.9019 104.526L44.1397 78.7637L58.5573 64.3534L68.8318 74.6206L112.105 24.6479ZM75.5596 134.359C43.0842 134.359 16.7616 108.036 16.7616 75.5607C16.7616 43.0854 43.0842 16.7627 75.5596 16.7627C85.5862 16.7627 95.0305 19.2747 103.287 23.7024L97.4039 30.5034C90.7994 27.2998 83.3941 25.5008 75.5596 25.5008C47.9117 25.5008 25.4989 47.9135 25.4989 75.5614C25.4989 103.209 47.9117 125.622 75.5596 125.622C103.207 125.622 125.62 103.209 125.62 75.5614C125.62 68.5931 124.193 61.9593 121.622 55.9305L127.877 48.6997C132.02 56.7461 134.358 65.8839 134.358 75.5614C134.358 108.036 108.036 134.359 75.5596 134.359Z" fill="#82CE51"/>
</svg>
